<svg xmlns="http://www.w3.org/2000/svg" viewBox="0 0 32 32">
  <path d="M16 2C14 7 10 9 10 14c0 3.3 2.7 6 6 6s6-2.7 6-6c0-1.2-.4-2.3-1-3.2C20.4 12.5 20 14 18.5 15c.3-1.5.2-3.1-.5-4.5C17.5 9 17 7.5 16 2z" fill="#FF6B00"/>
  <path d="M16 12c-1 2.5-3 3.5-3 6 0 1.7 1.3 3 3 3s3-1.3 3-3c0-.8-.3-1.5-.8-2-.2 1-.8 1.5-1.5 1.5.5-1.5.3-3.2-.7-5.5z" fill="#FFD700"/>
  <path d="M10 20c0 3.3 2.7 6 6 6s6-2.7 6-6c0-1.2-.4-2.3-1-3.2-.6 1.7-2 2.7-3.5 2.7C15.8 22 14 20.2 14 18c0-.3 0-.5.1-.8-2.5 1-4.1 3.2-4.1 5.5 0 .5 0-.5 0 0z" fill="#FF4500"/>
</svg>
